<svg fill="none" height="29" viewBox="0 0 115 29" width="115" xmlns="http://www.w3.org/2000/svg"><g fill="#25384f"><path d="m18.2489 17.7951v10.0913h-8.48319v-10.0913l-9.76571-17.7951h9.71864l4.44756 8.52705c1.4942-2.76394 2.9767-5.84544 4.3769-8.52705h9.3068z"/><path d="m44.7928 27.8864-7.9537-13.0199v13.0199h-8.0362v-27.8864h7.2478l7.9538 12.8082v-12.8082h7.9891v27.8864z"/><path d="m72.1839 22.9348h-8.2009l-1.6472 4.9398h-9.0598l10.2128-27.8746h9.7657l9.9658 27.8864h-9.4363zm-4.071-12.7611-2.1414 6.3864h4.2827z"/><path d="m95.8451 27.8864h-11.3659v-27.8864h10.7894c6.3884 0 10.0954 2.71689 10.0954 7.6567 0 2.4699-1.283 4.4929-3.377 6.0101 2.188 1.235 3.541 3.7049 3.541 6.2218-.011 5.1515-3.635 7.9978-9.6829 7.9978zm-1.2001-21.38232h-2.0591v4.52812h2.1885c1.0707 0 2.0237-.8703 2.0237-2.38753-.0117-1.18791-.7883-2.14059-2.1531-2.14059zm-.1647 10.25602h-1.8944v4.6575h1.7767c1.7766 0 2.7179-.8703 2.7179-2.27 0-1.4819-.7412-2.3875-2.6002-2.3875z"/></g><path d="m105.776 23.7228c0-2.5522 2.059-4.6104 4.612-4.6104s4.612 2.0582 4.612 4.6104c0 2.5523-2.059 4.6105-4.612 4.6105s-4.612-2.0582-4.612-4.6105z" fill="#85c3e9"/></svg>